PathFileType	4	(X/Y/Z)	Kaydara																																																																																																																									
DataRate	CameraRate	NumFrames	NumMarkers	Units	OrigDataRate	OrigDataStartFrame	OrigNumFrames																																																																																																																					
30	30	4	41	mm	30	115	133																																																																																																																					
Frame#	Time	PAIB_LFHD			PAIB_RFHD			PAIB_LBHD			PAIB_RBHD			PAIB_LFTShould			PAIB_RFTShould			PAIB_LRRShould			PAIB_RRRShould			PAIB_T10			PAIB_STRN			PAIB_TRUN			PAIB_LSHO			PAIB_LUPA			PAIB_LELB			PAIB_LFRM			PAIB_LWRA			PAIB_LWRB			PAIB_LFIN			PAIB_RSHO			PAIB_RUPA			PAIB_RELB			PAIB_RFRM			PAIB_RWRA			PAIB_RWRB			PAIB_RFIN			PAIB_LFWT			PAIB_RFWT			PAIB_LBWT			PAIB_RBWT			PAIB_LTHI			PAIB_LKNE			PAIB_LSHN			PAIB_LANK			PAIB_LHEE			PAIB_LTOE			PAIB_RTHI			PAIB_RKNE			PAIB_RSHN			PAIB_RANK			PAIB_RHEE			PAIB_RTOE		
		X1	Y1	Z1	X2	Y2	Z2	X3	Y3	Z3	X4	Y4	Z4	X5	Y5	Z5	X6	Y6	Z6	X7	Y7	Z7	X8	Y8	Z8	X9	Y9	Z9	X10	Y10	Z10	X11	Y11	Z11	X12	Y12	Z12	X13	Y13	Z13	X14	Y14	Z14	X15	Y15	Z15	X16	Y16	Z16	X17	Y17	Z17	X18	Y18	Z18	X19	Y19	Z19	X20	Y20	Z20	X21	Y21	Z21	X22	Y22	Z22	X23	Y23	Z23	X24	Y24	Z24	X25	Y25	Z25	X26	Y26	Z26	X27	Y27	Z27	X28	Y28	Z28	X29	Y29	Z29	X30	Y30	Z30	X31	Y31	Z31	X32	Y32	Z32	X33	Y33	Z33	X34	Y34	Z34	X35	Y35	Z35	X36	Y36	Z36	X37	Y37	Z37	X38	Y38	Z38	X39	Y39	Z39	X40	Y40	Z40	X41	Y41	Z41
																																																																																																																												
100	3.8	314.79507	1656.24023	950.36835	130.85257	1665.87189	935.49606	327.78717	1581.97037	844.52286	125.87329	1607.79694	834.82361	267.18777	1383.21014	987.12944	146.1288	1384.95087	987.23007	279.15085	1450.85266	844.64165	127.3521	1454.81644	851.94962	195.63471	1297.99149	758.66623	212.26103	1315.65323	1022.98622	208.05634	1213.02818	1038.79776	396.75922	1394.20685	909.13567	446.02631	1165.86609	895.77911	461.02837	1085.71983	853.17062	485.50125	973.83041	897.38304	438.27915	862.30057	995.55069	471.64677	843.11226	923.64395	490.68153	810.25833	986.29791	18.62005	1393.85223	929.90471	-52.29365	1224.11758	887.58888	-77.30058	1108.86009	880.09491	-97.36094	975.18082	916.84395	-35.97575	870.75005	1014.22562	-107.40891	859.34631	971.06339	-97.08419	827.2612	1037.21024	316.98965	940.5941	981.45958	81.95791	926.7524	982.68066	255.51662	975.66818	764.4313	112.57192	965.81978	765.30998	305.50516	693.82187	809.64554	319.07022	464.07154	970.05768	277.94333	271.50089	968.85483	270.23809	94.8035	865.89355	214.73303	92.46313	814.0696	252.48936	44.77341	1030.66635	64.11981	653.13927	837.22534	21.8552	449.66347	959.99771	88.95053	315.98354	835.76866	78.37533	273.65795	615.89153	147.51883	310.5777	602.27711	80.8103	113.5689	690.56252
101	3.833	311.16976	1666.87927	1005.50735	127.08699	1672.53876	989.75723	326.80862	1599.81461	895.30922	124.31041	1620.74173	885.65437	265.93029	1397.57736	1034.92897	145.47588	1397.03583	1032.26921	281.55458	1462.22809	891.91986	130.52999	1463.15796	896.90956	202.76451	1306.42166	807.25594	211.5785	1329.62158	1070.9214	208.06684	1227.27913	1088.78471	397.97798	1408.60184	960.27328	450.51163	1181.42036	954.23782	466.76792	1099.04045	917.10991	476.1409	990.89676	981.61873	409.06307	903.0854	1091.72295	446.30394	867.93991	1028.62526	456.34277	845.86021	1097.35664	17.96599	1403.20892	970.68085	-50.33656	1234.53751	919.0168	-75.04873	1120.29755	905.55702	-101.69407	985.9063	924.57199	-49.92376	865.76385	1009.25537	-120.09577	864.35707	961.91177	-113.13181	820.67291	1022.16782	319.46741	945.7885	1031.98975	84.19795	941.21239	1034.72153	253.7426	984.26445	816.036	111.53442	975.66635	818.6969	298.40033	708.28819	842.52609	316.868	464.59423	973.85468	276.34935	272.87331	969.64577	268.68448	96.2882	865.87074	213.71302	94.23658	814.57962	252.98393	44.63117	1030.92018	51.63595	664.47891	907.83058	22.35087	469.15909	1055.91896	89.85455	315.76342	956.37085	78.1338	231.81665	747.55547	146.95396	266.10435	726.14273	82.2629	94.34749	854.78371
102	3.867	306.12829	1670.21133	1061.18782	122.04981	1670.51086	1044.63631	324.50008	1610.29572	947.39082	121.43512	1624.86267	937.65549	265.10893	1403.37204	1083.51631	144.64047	1400.27939	1078.25356	283.27288	1466.46133	939.46182	132.86915	1464.67239	943.17734	208.57986	1308.43628	855.63156	210.81894	1334.44916	1118.13774	208.33797	1232.37907	1137.26242	398.68896	1416.4975	1011.03516	456.6114	1191.45309	1014.23904	476.62636	1108.81966	981.59676	469.4817	1009.73129	1065.39856	383.76984	949.42299	1180.47523	422.82139	899.77074	1129.51241	423.59737	890.04044	1201.97014	17.08222	1406.04034	1012.77039	-49.49748	1240.37071	948.77136	-74.49475	1128.11485	927.30682	-106.01091	994.39278	932.8405	-63.41654	865.52971	1009.8027	-130.37243	870.69061	957.70081	-127.40483	819.17717	1012.78145	322.80731	945.60089	1082.74971	87.35456	947.96158	1087.48215	249.49659	985.81024	866.6758	108.19717	978.86826	872.5309	293.36559	717.65671	876.92192	314.85348	465.60944	978.16475	277.35788	275.32791	971.06636	265.41908	99.37647	866.408	209.4997	97.98157	816.2796	253.53434	44.21684	1032.22443	38.81002	670.43274	977.33215	25.75208	481.29971	1143.98117	93.68989	310.21067	1075.0724	77.643	179.63686	891.88927	146.2878	209.26079	861.23932	83.85388	76.07521	1028.43201
103	3.9	300.30308	1666.61072	1117.54715	116.39579	1661.60172	1099.86938	321.27525	1611.6922	1001.71616	118.09784	1619.97467	991.1763	264.59452	1399.45251	1133.57201	143.73578	1394.40521	1126.42563	284.41599	1463.72589	989.13467	134.41605	1459.44611	991.09268	212.30991	1304.26895	905.36766	210.50646	1329.94888	1166.89957	209.06826	1227.63405	1185.16075	398.6105	1416.32324	1063.05313	465.97847	1194.93301	1074.1227	489.07135	1112.06253	1048.29391	465.35851	1027.91664	1146.88683	363.59932	995.75905	1259.95911	403.32954	934.79332	1224.29405	395.19032	939.41032	1297.17834	15.96049	1402.46002	1057.13638	-48.96667	1241.9252	978.04237	-74.99697	1132.1505	948.20023	-109.39611	998.96683	942.56195	-75.5366	865.27603	1016.68587	-137.43184	874.44847	958.15681	-140.17542	819.66141	1010.09804	325.43205	940.34813	1131.04858	91.09766	947.71545	1140.15625	244.827	981.41304	916.82396	104.34313	974.91074	925.55222	290.42831	725.50735	910.55603	314.2062	467.04887	986.66237	277.87411	278.48343	974.1127	261.327	103.87484	867.38129	203.5408	103.03734	820.31593	254.01997	43.4584	1033.23448	31.94607	672.86789	1045.40039	29.649	486.88736	1219.84901	96.46863	301.23646	1190.96481	76.95579	125.20962	1049.87228	146.55223	149.07484	1010.9774	82.42578	65.15139	1206.40526
